<?xml version="1.0" encoding="UTF-8"?><svg id="a" xmlns="http://www.w3.org/2000/svg" viewBox="0 0 583.95 486.04"><defs><style>.b{fill:#46a2d1;}</style></defs><path class="b" d="M204.57,485.93c2.19,3.96,191.48-100.67,191.48-100.67,8.56-4.73,19.83-12.25,43.56-25.19,8.56-4.67,17.87-10.33,27.56-17.19,10.92-7.73,20.27-15.53,28.15-22.81,3.18-2.77,6.48-5.92,9.78-9.48,8.03-8.66,13.86-17.35,18.07-24.89,5.32-10.1,9.56-18.89,12.74-25.78,5.21-11.27,8.73-19.93,12.44-29.04,3.75-9.21,5.76-14.13,8.3-21.33,1.59-4.5,3.79-11.05,7.41-23.7,3.13-10.93,6.52-22.8,9.48-36.15,3.03-13.65,6.46-32.75,8.3-56.59,.81-10.47,.39-12.5,1.8-17.74,.16-.58,.42-1.5,.27-2.7-.59-4.83-7.09-8.64-11.85-9.48-10.06-1.78-20.21,8.27-24.89,16-3.08,5.09-4.22,11-6.52,22.81-1.64,8.47-1.66,11.58-2.9,19.5-1.03,6.52-2.85,16.04-6.28,27.62-4.02,12.7-8.36,22.99-11.87,30.5-6.28,13.45-11.44,24.32-21.62,35.87-5.36,6.09-9.8,9.74-17.48,16-12.82,10.45-17.72,12.82-38.22,26.96,0,0-37.91,26.15-51.14,39.98-.42,.44-2.08,2.19-2.2,2.1-.26-.23,7.62-10.12,13.93-17.19,6.25-7,15.47-16.31,28.3-26.07,2.33-1.73,5.48-4.38,8.65-8.12,2.98-3.51,6.79-8.01,8.62-14.86,1.09-4.08,2.95-11.04-.83-17.17-3.78-6.13-10.84-7.63-12.59-8-3.21-.68-9.08-1.18-24.3,6.52-6.96,3.52-14.26,7.94-28,18.22-8.14,6.09-14.71,11.37-19.26,15.11-9.1,7.11-15.96,13.85-20.74,18.96-22.72,24.3-35.16,51.19-35.62,55.51-.02,.17-.07,.84-.38,.93-1.14,.33-4.22-7.64-6.52-12.59-2.44-5.25-6.49-12.44-13.48-20.44-3.85-5.26-8.36-10.86-13.63-16.59-3.83-4.16-7.61-7.9-11.26-11.26-7.69-5.97-15.39-11.94-23.08-17.9-11.64-6.78-20.47-13.02-26.25-17.36-14.38-10.78-19.89-17.2-29.5-16.86-1.16,.04-10.2,.49-15.1,7.24-4.53,6.24-2.77,14.08-1.78,18.52,1.79,7.97,6.04,13.21,10.81,19.11,4.82,5.95,9.6,10.17,13.04,12.89,20.64,19.91,28.71,27.48,31.16,29.58,.05,.04,1.03,.88,.99,.94-.11,.13-6.09-4.81-12.15-8.74-6.29-4.08-11.18-6.11-15.41-8-7.66-3.43-17.11-8.81-36-19.56-6.21-3.54-14.47-8.33-24.15-14.22-7.61-4.02-17.53-10.11-27.85-19.11-2.33-2.03-11.08-9.79-20.59-22.07-8.65-11.17-13.37-20.2-21.48-35.7-6.68-12.77-10.33-19.75-14.07-30.37-4.35-12.33-6.53-18.5-8-26.52-.42-2.3-1.24-7.18-3.57-13.38-1.61-4.3-2.8-7.46-5.41-11.04-1.37-1.87-6.58-8.57-15.76-11.72-2.07-.71-4.59-1.07-9.63-1.78-5.14-.73-6.67-.59-7.51,.38-.86,.99-.53,2.31-.2,5.4,.53,4.93,.04,4.85,.44,8.89,1.9,18.84,7.11,39.11,7.11,39.11,3.26,12.7,5.85,22.76,10.81,38.22,7.61,23.68,14.31,39.63,27.71,71.53,4.71,11.22,9.82,23.01,18.22,37.51,3,5.17,5.26,9.08,8.74,14.07,4.49,6.44,13.6,18.42,33.93,35.26,12.08,10.01,21.78,16.48,31.56,22.96,25.31,16.78,31.67,17.89,53.33,33.63,0,0,10.23,7.43,25.19,22.07,4.72,4.62,8.72,8.85,12.3,15.26,2.2,3.93,5.46,9.94,5.9,18.26,.02,.32,.3,6.63-1.75,13.15-6.07,19.26-29.87,31.71-29.26,32.81Z"/><g><rect class="b" x="283.76" y="74.67" width="11.85" height="65.19" rx="2.07" ry="2.07"/><rect class="b" x="283.76" y="74.67" width="11.85" height="65.19" rx="2.07" ry="2.07" transform="translate(182.43 396.94) rotate(-90)"/></g><g><rect class="b" x="235.17" width="11.85" height="65.19" rx="2.07" ry="2.07"/><rect class="b" x="235.17" y="0" width="11.85" height="65.19" rx="2.07" ry="2.07" transform="translate(208.5 273.69) rotate(-90)"/></g><g><rect class="b" x="172.94" y="65.19" width="11.85" height="65.19" rx="2.07" ry="2.07"/><rect class="b" x="172.94" y="65.19" width="11.85" height="65.19" rx="2.07" ry="2.07" transform="translate(81.09 276.65) rotate(-90)"/></g><g><rect class="b" x="222.72" y="127.41" width="11.85" height="65.19" rx="2.07" ry="2.07"/><rect class="b" x="222.72" y="127.41" width="11.85" height="65.19" rx="2.07" ry="2.07" transform="translate(68.65 388.65) rotate(-90)"/></g><g><rect class="b" x="369.98" y="50.67" width="11.85" height="65.19" rx="2.07" ry="2.07"/><rect class="b" x="369.98" y="50.67" width="11.85" height="65.19" rx="2.07" ry="2.07" transform="translate(292.65 459.17) rotate(-90)"/></g><g><rect class="b" x="412.06" y="121.48" width="11.85" height="65.19" rx="2.07" ry="2.07"/><rect class="b" x="412.06" y="121.48" width="11.85" height="65.19" rx="2.07" ry="2.07" transform="translate(263.91 572.06) rotate(-90)"/></g><g><rect class="b" x="325.83" y="156.44" width="11.85" height="65.19" rx="2.07" ry="2.07"/><rect class="b" x="325.83" y="156.44" width="11.85" height="65.19" rx="2.07" ry="2.07" transform="translate(142.72 520.8) rotate(-90)"/></g></svg>